<svg fill="#181717" role="img" viewBox="0 0 24 24" xmlns="http://www.w3.org/2000/svg"><title>GitHub</title><path d="M12 .297a12 12 0 0 0-3.79 23.39c.6.11.82-.258.82-.577v-2.234c-3.338.726-4.043-1.61-4.043-1.61-.546-1.386-1.334-1.755-1.334-1.755-1.09-.744.083-.729.083-.729 1.205.085 1.84 1.238 1.84 1.238 1.07 1.835 2.807 1.305 3.492.998.108-.775.418-1.305.76-1.606-2.665-.304-5.466-1.332-5.466-5.93 0-1.31.468-2.38 1.236-3.22-.124-.303-.536-1.524.117-3.176 0 0 1.008-.322 3.3 1.23a11.49 11.49 0 0 1 6.006 0c2.29-1.552 3.297-1.23 3.297-1.23.655 1.653.243 2.874.12 3.176.77.84 1.235 1.91 1.235 3.22 0 4.61-2.804 5.624-5.476 5.922.43.37.815 1.103.815 2.222v3.293c0 .322.217.694.825.576A12.003 12.003 0 0 0 12 .297"/></svg>
